<svg width="71" height="36" viewBox="0 0 71 36" fill="none" xmlns="http://www.w3.org/2000/svg">
<path d="M56.1819 25.4344C55.5105 25.2568 53.8916 24.9696 51.6491 24.856M19.3148 23.9161C34.1221 26.3454 43.6411 24.9789 48.4761 24.8271C49.6299 24.7908 50.6958 24.8077 51.6491 24.856M19.3148 23.9161C7.46902 21.9726 4.20537 23.1063 4.05428 23.9161M19.3148 23.9161C25.7213 24.8878 34.3739 21.9928 37.8995 20.4238C44.5476 17.9439 58.267 12.6195 59.9593 11.1619C62.0746 9.3399 62.3768 11.4656 62.3768 12.5284C62.3768 13.5913 64.19 22.7014 64.9454 25.4344C65.5498 27.6208 63.787 28.7616 62.8301 29.0587M4.05428 23.9161C3.4499 23.5112 2.42245 22.3673 3.14771 21.0312C4.05428 19.361 4.96083 18.45 5.26302 17.6908C5.56521 16.9316 9.19149 13.1358 10.5513 12.5284C11.6392 12.0426 14.4294 10.3015 15.6886 9.49174C19.6674 7.01177 30.0426 1.89999 39.7126 1.29265C51.8002 0.533478 55.5776 0.988982 63.2834 5.8477C69.448 9.73467 70.2841 15.6664 69.9316 18.1463C69.6294 20.2214 69.1459 24.6449 69.6294 25.7381C70.2337 27.1046 69.4783 29.6858 67.9673 29.6858M4.05428 23.9161C1.7879 25.1307 1.18352 26.4972 1.00887 27.5601M67.9673 29.6858C66.775 29.6858 64.6419 29.4021 62.8301 29.0587M67.9673 29.6858L67.0608 31.6596L65.852 35L64.0389 33.2532L55.5776 26.8223M51.6491 24.856C52.4622 25.4508 53.8111 26.1 55.2754 26.6999M62.8301 29.0587C62.3458 28.9669 61.8845 28.8708 61.4703 28.7748C60.3127 28.5063 57.8435 27.7308 55.5776 26.8223M55.5776 26.8223C55.4764 26.7817 55.3756 26.7409 55.2754 26.6999M55.2754 26.6999C53.7644 28.6568 48.053 32.267 37.2951 31.0523C28.7922 30.0922 20.6102 28.0572 15.6886 26.5965M15.6886 26.5965C14.3833 26.2091 12.8179 25.903 11.1558 25.7381C7.30124 25.3555 1.29947 25.1103 1.00887 27.5601M15.6886 26.5965C13.4221 27.6067 1.78785 31.6596 1.03237 28.0156C0.999036 27.8548 0.991903 27.7031 1.00887 27.5601" stroke="#0A2854" stroke-width="2" stroke-linecap="round" stroke-linejoin="round"/>
</svg>
