<svg width="74" height="39" viewBox="0 0 74 39" fill="none" xmlns="http://www.w3.org/2000/svg">
<path d="M9.79144 26.5452L13.2777 5.45944C13.2481 4.95595 13.482 4.11592 14.3387 3.40878M9.79144 26.5452C17.9159 28.7296 31.1637 29.2757 36.7721 29.2757M9.79144 26.5452C9.53882 27.0508 8.57883 28.1835 6.75991 28.6689C4.48626 29.2757 1.45473 30.1858 1 31.7028C1.85893 34.0794 10.7009 38.6505 38.591 37.9223C66.4811 37.1942 73.0999 34.1805 72.9989 32.7647C72.9989 32.3096 72.6048 31.2781 71.0284 30.7926C69.0579 30.1858 64.359 28.2138 63.1464 26.5452M57.2349 3.63909C56.477 3.63909 39.652 1.36365 37.2268 1.06026C34.8016 0.756871 21.3113 1.66705 17.2187 2.27383C15.8623 2.47493 14.9447 2.90862 14.3387 3.40878M57.2349 3.63909C57.9928 3.63909 61.0243 4.70096 61.3275 8.49335C61.57 11.5273 62.6412 21.792 63.1464 26.5452M57.2349 3.63909C50.7162 2.90881 43.7356 2.61769 37.2268 2.57491M63.1464 26.5452C63.7022 27.4553 61.1759 29.2757 56.7802 29.2757C51.566 29.2757 41.7741 29.2757 36.7721 29.2757M36.7721 29.2757C36.7721 29.2757 36.6205 20.9324 36.7721 14.2578C36.9237 7.58318 37.2268 2.57491 37.2268 2.57491M14.3387 3.40878C18.8469 3.00056 27.5113 2.51107 37.2268 2.57491" stroke="#0A2854" stroke-width="2" stroke-linecap="round" stroke-linejoin="round"/>
</svg>
