<svg width="71" height="39" viewBox="0 0 71 39" fill="none" xmlns="http://www.w3.org/2000/svg">
<path d="M1 33.6396L11.9173 25.6686M1 33.6396C4.02774 31.7845 7.50188 32.8667 8.86048 33.6396M1 33.6396C1 34.8473 2.5721 36.5382 8.86048 33.6396M11.9173 25.6686C23.4169 23.7845 48.1629 29.4367 53.2577 31.0309M11.9173 25.6686L12.4712 21.9005M18.1766 17.2628C14.4502 17.0309 13.0333 18.8087 12.7907 19.7266L12.4712 21.9005M18.1766 17.2628C19.2302 11.5623 24.34 0.335237 36.3513 1.03089M18.1766 17.2628C22.3031 17.5196 35.7973 19.3687 41.7581 20.4927M63.4472 34.799C62.962 33.1082 61.4384 29.5237 59.2258 28.7121C56.4601 27.6976 47.8718 21.9005 43.6504 20.886C43.1687 20.7702 42.5259 20.6375 41.7581 20.4927M63.4472 34.799L62.1371 37.4077M63.4472 34.799C65.5151 35.427 69.5983 35.3497 69.3876 30.0164M62.1371 37.4077C60.8755 35.8135 57.3335 32.3063 53.2577 31.0309M62.1371 37.4077C63.6413 37.9874 67.1445 38.5092 69.1242 35.9584C70.4075 34.305 70.0882 31.9532 69.3876 30.0164M53.2577 31.0309C51.1712 33.2531 43.8833 37.7555 31.423 37.9874C18.9627 38.2193 11.1895 35.1855 8.86048 33.6396M12.4712 21.9005C11.6073 20.741 10.1706 17.8425 11.3351 15.5236C12.4996 13.2048 15.9931 9.62993 17.5944 8.13234C18.3707 7.8908 20.2145 7.11785 21.379 5.95843C22.8347 4.50915 25.746 1.17582 32.2964 1.03089C33.7063 0.999694 35.0691 0.995358 36.3513 1.03089M49.6185 4.2193C48.6481 4.79901 46.4744 5.49466 45.5427 3.63959C44.6289 1.81988 41.0257 1.16043 36.3513 1.03089M49.6185 4.2193C49.9582 4.2193 50.8995 4.33524 51.9476 4.79901C53.2577 5.37872 52.9665 4.36423 55.0044 5.95843C56.6348 7.23379 59.9536 10.5478 61.4093 12.0454L65.1939 16.3932C66.6011 17.9874 69.1533 22.4222 68.1052 27.4077C68.5149 28.0365 69.0074 28.9654 69.3876 30.0164M49.6185 4.2193C51.016 6.30625 44.9605 15.9378 41.7581 20.4927" stroke="#0A2854" stroke-width="2" stroke-linecap="round" stroke-linejoin="round"/>
</svg>
