<svg width="73" height="40" viewBox="0 0 73 40" fill="none" xmlns="http://www.w3.org/2000/svg">
<path d="M3.59024 27.3748C4.50561 26.0398 7.923 23.6779 14.2696 24.9102M3.59024 27.3748C3.59024 24.6021 4.23594 21.2957 5.26842 19.2108C6.79404 16.13 10.303 13.0492 11.9811 12.4331C13.3237 11.9402 17.4225 9.76308 19.3041 8.73615C22.9656 6.785 31.6616 2.75946 37.1539 2.26654M3.59024 27.3748L1.85486 29.5313M14.2696 24.9102C20.6162 26.1425 27.8984 28.5044 30.7463 29.5313C34.452 31.0207 41.1613 33.5484 45.8499 34.8561M14.2696 24.9102C13.6593 25.2696 12.9575 24.3557 15.0324 17.8244C17.1072 11.2932 30.6446 4.73115 37.1539 2.26654M50.2742 35.6929C53.3254 35.5697 58.36 36.0523 60.4959 36.309M50.2742 35.6929C47.9858 37.4387 41.3106 39.9662 35.4757 38.6196C30.136 37.3873 23.881 33.7448 20.8297 31.8419C19.1145 30.7723 16.0581 29.6716 12.8965 28.7612M50.2742 35.6929C49.3817 35.7289 47.7885 35.3968 45.8499 34.8561M60.4959 36.309C62.0496 36.4321 64.6107 36.4409 66.5983 35.9777M60.4959 36.309C61.2587 36.9252 63.1199 38.1883 64.4625 38.3115C65.805 38.4348 66.0389 37.9521 65.9881 37.6954C66.1915 37.1819 66.5983 36.1196 66.5983 35.9777M37.1539 2.26654C37.9167 3.13942 40.2661 6.64123 43.5615 13.6654C46.8568 20.6895 46.4602 30.7193 45.8499 34.8561M37.1539 2.26654C40.0395 2.00756 44.2025 2.75774 48.1383 3.76644M66.5983 35.9777C67.9286 35.6678 69.0019 35.1465 69.3445 34.3065C70.1988 32.2116 71.3278 27.8883 71.7854 25.9885C72.0906 24.6021 72.3042 20.936 70.7175 17.3623C69.1309 13.7886 64.0048 9.50635 57.1395 6.57962C55.0638 5.7998 51.6938 4.67764 48.1383 3.76644M66.5983 35.9777C68.2257 33.1101 70.7785 25.9268 67.9714 20.135C64.4625 12.8952 51.037 4.4475 48.1383 3.76644M12.8965 28.7612C9.68413 27.8361 6.05313 27.119 3.28511 28.299C2.60649 28.5006 2.30819 28.9531 1.85486 29.5313M12.8965 28.7612C10.4555 34.3918 5.52269 34.891 3.28511 34.6146C0.491572 33.7957 0.575675 31.163 1.85486 29.5313M34.2552 2.26654C34.4586 1.85577 35.2316 1.03423 36.6962 1.03423C38.5269 1.03423 39.7474 0.726154 40.0526 1.95846" stroke="#0A2854" stroke-width="2" stroke-linecap="round" stroke-linejoin="round"/>
</svg>
