<svg width="50" height="73" viewBox="0 0 50 73" fill="none" xmlns="http://www.w3.org/2000/svg">
<path d="M4.41997 27.0317C2.98638 32.7583 0.326815 46.188 1.15731 54.0938C1.98781 61.9995 7.68264 63.824 11.8351 64.5841M4.41997 27.0317C-1.03758 21.6801 3.72789 11.5242 6.79282 7.11517C17.1147 -2.73665 31.1639 1.4899 36.8983 4.83466M4.41997 27.0317C7.38602 18.1529 25.825 22.724 34.6738 26.1195M11.8351 64.5841C15.9876 65.3443 17.2927 50.4145 17.7672 46.0359C18.2418 41.6574 27.2586 43.4007 31.7077 44.8197M11.8351 64.5841L21.6141 65.6146M31.7077 44.8197C30.0269 51.2558 28.712 64.5841 36.8983 66.4085M31.7077 44.8197L34.6738 26.1195M36.8983 66.4085C45.0846 68.2329 47.3289 59.4656 47.4278 54.8539V35.0895C48.6142 29.6162 50.2752 17.8184 47.4278 14.4128C43.8685 10.1559 40.6059 4.98669 36.8983 4.83466M36.8983 66.4085L21.6141 65.6146M36.8983 4.83466C38.8757 10.1559 41.1991 21.8625 34.6738 26.1195M21.6141 65.6146C20.2794 65.4739 12.7069 67.591 15.2371 69.1114C17.2612 70.3276 20.3318 67.2869 21.6141 65.6146ZM21.6141 65.6146C20.8726 66.9322 20.0124 69.7195 22.5039 70.3276C24.9954 70.9358 22.9488 67.439 21.6141 65.6146ZM21.6141 65.6146V72M21.6141 65.6146L15.2371 72" stroke="#0A2854" stroke-width="2" stroke-linecap="round" stroke-linejoin="round"/>
</svg>
