<svg width="69" height="43" viewBox="0 0 69 43" fill="none" xmlns="http://www.w3.org/2000/svg">
<path d="M60.6995 33.4541C64.1355 35.2103 66.3259 35.2103 67.6388 31.0706C68.689 27.7589 67.2012 23.8367 66.3259 22.2896C66.3259 20.5334 63.8253 17.0419 62.575 15.5156C61.9995 14.7802 61.3693 14.073 60.6995 13.3955M60.6995 33.4541C58.6419 32.6512 52.8821 31.8651 50.2594 31.5724C50.044 31.586 49.8143 31.5987 49.5717 31.6102M60.6995 33.4541C59.8895 33.0093 58.8662 32.4776 57.6987 31.9085M40.5694 26.4292C34.5179 26.3289 25.1697 23.6277 21.252 22.2896M40.5694 26.4292C47.1211 19.0531 46.7168 8.38627 45.6957 3.97484M40.5694 26.4292C45.4506 26.5102 52.8293 29.5347 57.6987 31.9085M21.252 22.2896C18.6889 22.1223 13.2625 22.0512 12.0622 23.105M21.252 22.2896C13.8501 8.2901 27.1285 2.57406 34.6929 1.46597M12.0622 23.105C10.5618 24.4221 5.56052 16.8955 11.3745 9.24347C16.0257 3.12183 21.1061 2.63678 23.0649 3.15946M12.0622 23.105C11.833 24.1294 11.512 26.4794 12.0622 27.6837M23.0649 3.15946C21.6062 4.10029 18.4888 6.63424 17.6886 9.24347M23.0649 3.15946C24.9821 2.03047 29.9917 0.111183 34.6929 1.46597M34.6929 1.46597C36.7351 0.943291 41.7947 0.713311 45.6957 3.97484M45.6957 3.97484C48.9007 5.13245 55.8401 8.47989 60.6995 13.3955M12.0622 27.6837C15.9173 27.0773 25.0029 26.517 30.5043 29.1263C35.7297 31.6046 44.9783 31.827 49.5717 31.6102M12.0622 27.6837L1.9971 35.3357C1.39278 35.6284 0.4342 36.5149 1.43445 37.7191M60.6995 13.3955C65.0548 18.0059 70.552 28.1631 57.6987 31.9085M49.5717 31.6102C47.6337 34.1692 42.5449 39.6635 37.6937 41.1688C32.8424 42.6742 26.3366 41.796 23.6901 41.1688C20.1788 39.3416 13.1199 36.3088 7.81107 35.8366M1.43445 37.7191C1.18439 37.0167 3.03903 36.3393 3.9976 36.0884C5.0716 35.7683 6.37753 35.7091 7.81107 35.8366M1.43445 37.7191C1.74703 38.5972 5.43547 37.7174 7.81107 35.8366" stroke="#0A2854" stroke-width="2" stroke-linecap="round" stroke-linejoin="round"/>
</svg>
