<svg width="72" height="52" viewBox="0 0 72 52" fill="none" xmlns="http://www.w3.org/2000/svg">
<path d="M57.3397 38.1486C55.5163 40.566 50.7755 46.0815 46.3993 48.8047C42.0232 51.528 35.0155 49.3474 32.0586 47.9167C28.4118 46.1407 19.3737 42.2926 12.3956 41.1086C5.41739 39.9246 2.34219 41.8486 1.60303 43.0327C1.30731 43.3287 0.715926 42.8847 1.15952 42.4406L4.3918 39.3326M57.3397 38.1486C60.8879 38.3459 68.2505 38.415 69.3149 37.1126C70.3794 35.8101 70.5962 31.9325 70.7933 30.1565C71.1711 26.7524 71.0354 20.0923 70.3498 17.5763C69.9063 15.9482 68.8714 6.92009 47.2864 1.74001H44.1078M57.3397 38.1486C56.7968 38.1825 56.1639 38.181 55.456 38.1486M12.3956 31.6365C12.3956 27.9364 12.1844 18.7603 16.2395 11.6562C20.9704 3.36804 34.6705 1.59201 40.9292 1.74001H44.1078M12.3956 31.6365C14.4654 31.1925 19.5216 30.5709 23.1881 31.6365M12.3956 31.6365L4.3918 39.3326M23.1881 31.6365C24.223 28.1338 25.7013 20.6843 26.2928 18.1683C26.9701 15.2869 29.3974 0.703996 44.1078 1.74001M23.1881 31.6365C26.8827 32.7103 42.203 36.5734 51.7217 37.7982M44.1078 1.74001C48.9127 2.57869 58.2859 6.77209 57.3397 16.8362C56.3935 26.9004 55.6896 35.2379 55.456 38.1486M55.456 38.1486C54.37 38.0988 53.1073 37.9765 51.7217 37.7982M51.7217 37.7982L45.808 43.3287C44.6745 44.4633 41.2544 46.2887 36.6417 44.5127C32.029 42.7367 27.4262 41.01 25.7014 40.3686C22.4488 39.1592 18.5458 37.1126 12.3956 37.1126C10.6079 37.0061 6.50454 37.3011 4.3918 39.3326M40.9292 1H46.8429" stroke="#0A2854" stroke-width="2" stroke-linecap="round" stroke-linejoin="round"/>
</svg>
