<svg width="70" height="41" viewBox="0 0 70 41" fill="none" xmlns="http://www.w3.org/2000/svg">
<path d="M64.3213 33.3732C64.465 32.9318 64.2316 32.8388 64.6088 32.6375C66.6214 31.9017 68.7562 29.6851 68.9215 26.7514C69.3528 19.0994 68.059 16.7449 63.7463 11.006C62.5776 9.45086 60.9362 8.07697 59.146 6.90372M64.3213 33.3732C64.2733 34.2562 63.6313 35.9926 61.4461 35.8749C59.7634 35.7842 56.6074 35.6377 53.827 35.2977M64.3213 33.3732C63.286 33.2786 61.6503 33.2001 59.7211 33.2204M49.5143 34.4033C42.7577 36.1692 19.4691 36.022 15.7314 35.4334C13.4886 35.0802 8.9681 34.515 5.52469 33.0066M49.5143 34.4033C50.5077 34.7988 52.0944 35.0858 53.827 35.2977M49.5143 34.4033C52.8343 33.5356 56.6496 33.2527 59.7211 33.2204M23.2068 4.38405C19.4116 6.26762 11.1791 13.3114 7.53728 16.5978C5.95984 18.0542 3.4361 20.8798 2.03043 23.8083M23.2068 4.38405C27.002 2.50049 28.8133 2.42201 29.2446 2.61822C30.4905 1.88245 33.9598 0.558069 37.87 1.14668M23.2068 4.38405C25.2769 3.12387 31.353 2.97606 34.1323 3.05967M37.87 1.14668C40.3618 0.950478 46.1504 0.940667 49.3706 2.47106C51.5887 3.08736 55.6509 4.61314 59.146 6.90372M37.87 1.14668C37.0075 1.34289 35.0524 2.00017 34.1323 3.05967M5.52469 33.0066C3.22972 32.0013 1.41317 30.577 1.06821 28.5172C0.950611 27.815 0.990011 27.0714 1.14841 26.3099C1.31952 25.4872 1.6295 24.6436 2.03043 23.8083M5.52469 33.0066C4.66215 33.325 3.31084 34.2562 4.80591 35.4334C6.67475 36.9049 17.169 40.1423 30.1071 39.9951C43.0453 39.848 55.8396 37.9579 53.827 35.2977M34.1323 3.05967C35.1215 2.92204 36.3956 2.89987 37.87 3.06707M59.7211 18.8051C52.8243 7.41546 43.7524 3.73414 37.87 3.06707M59.7211 18.8051C53.3478 21.65 39.8251 27.752 36.7199 29.4001C32.8385 31.4603 20.0441 32.6375 9.69364 31.0188C1.41325 29.7238 1.13467 25.6722 2.03043 23.8083M59.7211 18.8051C59.8478 18.9852 59.9778 19.1819 60.1088 19.3937C62.0095 22.4652 64.1321 28.7008 59.7211 33.2204M37.87 3.06707C39.4993 1.75227 46.0354 0.678877 59.146 6.90372" stroke="#0A2854" stroke-width="2" stroke-linecap="round" stroke-linejoin="round"/>
</svg>
