<svg width="78" height="41" viewBox="0 0 78 41" fill="none" xmlns="http://www.w3.org/2000/svg">
<path d="M70.6025 31.6308C71.4618 31.5239 72.8581 29.868 74.147 27.6246C75.9883 24.4198 76.1879 24.4197 76.7249 22.9774C76.9865 22.275 77.1286 21.168 76.8418 19.9328M70.6025 31.6308C70.6562 33.2866 70.538 36.7586 69.6358 37.3996C68.7335 38.0406 66.8968 37.6667 66.0912 37.3996C63.6313 36.4146 59.4016 34.8458 55.1353 33.5537M70.6025 31.6308C69.4929 30.9686 68.171 30.2642 66.5746 29.5254M10.1836 20.734C8.67989 16.9949 6.41351 8.68348 9.37806 5.35035C11.8708 2.54773 15.1654 1.05028 22.1063 1.00432M10.1836 20.734C13.406 19.1315 21.623 17.5405 38.8625 21.2147C46.2422 22.7876 52.086 24.3336 56.7464 25.809M10.1836 20.734C9.45099 21.827 9.29096 23.9038 9.37806 25.5516M10.1836 20.734C13.406 18.4906 20.9785 19.452 26.2953 19.9328C30.5488 20.3174 46.6836 24.3663 54.2192 26.3426M9.86143 27.9451C13.4704 25.7657 20.1729 26.2892 23.073 26.8234C28.8732 28.1587 41.7948 30.9898 47.0794 31.6308C49.2204 31.8904 52.2296 32.6737 55.1353 33.5537M9.86143 27.9451L1 34.9959M9.86143 27.9451C9.65281 27.8068 9.4442 26.8028 9.37806 25.5516M1 34.9959C2.78496 34.7423 5.56602 34.382 8.89473 34.6448M1 34.9959C1.16112 36.204 2.77229 39.1623 8.89473 34.6448M55.1353 33.5537C53.0944 34.8553 47.9495 37.7522 44.3404 39.1623C39.8292 40.925 25.1675 39.8033 17.595 36.7586C14.944 35.6927 11.8757 34.8801 8.89473 34.6448M56.7464 25.809C57.7131 26.1471 59.4854 27.4002 58.841 29.7078C58.1965 32.0153 56.639 32.3786 55.9408 32.2717C55.1148 32.1544 53.7702 31.5384 53.363 30.0084M56.7464 25.809C56.1668 25.4245 55.033 25.5588 54.2192 26.3426M56.7464 25.809C60.8658 27.1131 64.0607 28.3619 66.5746 29.5254M9.37806 25.5516C10.3448 24.106 14.856 21.7275 25.1675 23.7787C35.479 25.8298 48.2609 28.7865 53.363 30.0084M53.363 30.0084C53.2142 29.4494 53.1905 28.7684 53.363 27.9451C53.5086 27.25 53.8267 26.7207 54.2192 26.3426M76.8418 19.9328C76.5398 18.6318 75.7621 17.1887 74.147 15.9266C67.3801 10.6385 51.7518 4.06838 35.1568 1.98518C29.7247 1.30329 25.4838 0.981955 22.1063 1.00432M76.8418 19.9328C75.6117 19.0929 74.0438 18.1539 72.2136 17.1556M22.1063 1.00432C35.0342 0.767177 59.7275 10.3443 72.2136 17.1556M66.5746 29.5254C66.8968 29.0668 72.3748 24.9546 72.2136 17.1556" stroke="#0A2854" stroke-width="2" stroke-linecap="round" stroke-linejoin="round"/>
</svg>
