<svg width="73" height="39" viewBox="0 0 73 39" fill="none" xmlns="http://www.w3.org/2000/svg">
<path d="M12.8546 23.9798C17.718 22.3035 26.4822 24.166 30.0286 25.3514C34.1321 26.7229 47.8105 29.3136 53.8898 29.9232M12.8546 23.9798C13.6652 23.6243 16.0766 22.6997 19.2379 21.8463C22.3991 20.9929 31.4978 21.4908 35.6519 21.8463M12.8546 23.9798C12.5184 24.0641 9.22988 25.9735 5.71145 28.0945M1 30.9899C3.43172 30.7867 9.32862 31.0509 13.4625 33.733M1 30.9899C2.15749 30.2841 4.13989 29.0418 5.71145 28.0945M1 30.9899C1.15198 33.2758 3.85727 37.0247 13.4625 33.733M13.4625 33.733C17.5965 36.4151 26.6343 37.6952 30.6365 38C35.5 38 46.9594 36.1408 53.8898 29.9232M53.8898 29.9232C57.6387 30.7867 63.7686 32.8186 67.1123 34.7997C68.7841 34.7997 67.7202 33.733 70.1519 32.8186M70.1519 32.8186C71.3678 30.9899 72.4316 27.363 71.8237 23.2179C71.0638 18.0365 65.7444 8.89294 60.577 7.52141M70.1519 32.8186C68.3514 31.0133 63.8715 27.4596 59.0572 26.1764M35.6519 21.8463C40.566 22.8623 51.7621 25.0771 57.2334 25.8086C57.8435 25.8901 58.453 26.0154 59.0572 26.1764M35.6519 21.8463C34.1929 19.1642 34.3376 7.01343 34.5923 1.2733M60.577 7.52141C59.8171 7.52141 57.3854 0.816118 49.0264 1.2733C42.3392 1.63904 41.2246 1.42569 40.8193 1.2733C39.9619 1.00649 36.722 0.822723 34.5923 1.2733M60.577 7.52141C62.0968 11.1193 63.9206 19.8874 59.0572 26.1764M5.71145 28.0945C4.98193 27.1279 5.40748 25.5111 5.71145 25.0466C6.16739 24.7418 7.59603 22.9741 8.44713 19.5605C9.511 15.2934 12.8546 11.4836 16.3502 9.50252C19.1467 7.91763 21.8722 6.60705 22.8854 6.14987C25.3172 5.05264 25.3172 6.21083 29.5727 3.4068C31.3446 2.2392 33.0727 1.59478 34.5923 1.2733" stroke="#0A2854" stroke-width="2" stroke-linecap="round" stroke-linejoin="round"/>
</svg>
