<svg width="102" height="50" viewBox="0 0 102 50" fill="none" xmlns="http://www.w3.org/2000/svg">
<path d="M75.2706 31.6919C71.5417 34.3507 63.5537 40.6036 50.101 38.6166C36.3568 36.5866 33.6258 33.1062 28.4031 32.9296C27.7656 32.9081 27.1351 32.8916 26.5226 32.8868M20.0132 34.6426C19.7295 33.7707 24.0961 29.3225 26.6672 27.4043M20.0132 34.6426C20.7152 33.1466 23.3823 32.8624 26.5226 32.8868M20.0132 34.6426C20.0614 35.5064 21.4308 36.3644 26.5226 32.8868M53.146 2.3987C50.6756 2.81128 45.5261 4.03581 43.7363 4.69594C41.4989 5.5211 35.2744 8.09082 33.7552 8.95377C31.0068 10.515 22.6684 14.7728 21.8937 22.0111C21.3772 26.8366 25.3408 27.4043 26.6672 27.4043M53.146 2.3987C48.0654 3.77396 39.2981 8.7119 35.4911 14.2051C33.032 17.7533 31.7542 22.6968 32.4533 25.7012M53.146 2.3987C53.409 2.38039 53.6892 2.36316 53.985 2.34733M26.6672 27.4043C27.5352 26.7568 28.4031 26.4108 29.1263 26.2689C29.8496 26.127 30.3473 25.7008 32.4533 25.7012M32.4533 25.7012C39.4551 25.7024 49.6084 26.5995 55.0192 28.2559C57.7676 29.0973 60.8777 28.7678 63.2644 29.1075M53.985 2.34733C56.269 3.51051 61.196 9.71931 62.3965 14.7728C64.8556 25.1242 63.311 26.796 63.2644 29.1075M53.985 2.34733C54.4595 2.32195 54.9744 2.30019 55.5232 2.28345C57.6024 2.22 60.3387 2.44995 63.2644 2.8941M63.2644 29.1075L67.604 29.3515M56.4657 1.43161C56.4657 1.43161 55.3397 0.941463 53.7173 1.00583C52.0949 1.07019 51.2582 1.71546 51.2582 1.71546M67.604 29.3515C71.8471 30.5948 80.8542 33.3369 82.9372 34.3588C83.4193 33.1637 84.3837 30.6779 84.3837 30.2953M67.604 29.3515L84.3837 30.2953M84.3837 30.2953H84.8176M84.8176 30.2953L85.9749 30.3848C86.6274 29.3763 88 22.7288 88 19.5983C88 16.1921 86.8459 11.097 78.5957 7.10871C74.8557 5.30073 68.7295 3.72374 63.2644 2.8941M84.8176 30.2953C85.565 25.1946 85.7926 15.864 77.7296 9.6634C72.3775 5.54751 63.7948 2.98057 63.2644 2.8941" stroke="#0A2854" stroke-width="2" stroke-linecap="round" stroke-linejoin="round"/>
<path d="M87.5269 20L89.8331 25.7995M89.8331 25.7995H92.5585C94.4454 28.9499 97.5901 36.1098 99.477 39.3317M89.8331 25.7995L99.477 39.3317M99.477 39.3317C101.364 42.5537 101.993 45.5608 98.4287 46.42C93.8283 47.529 67.7498 49.0692 55.031 48.9976L5.34382 46.42C3.3172 46.2052 0.102556 44.4869 3.45697 39.3317C5.34382 38.4725 9.95613 35.4654 12.2623 31.3842C14.1072 28.1193 17.224 23.8663 18.5518 22.148C19.6463 22.1298 20.7985 22.1102 22 22.0892M6.18242 40.4057C29.0343 42.7685 78.8893 46.3771 95.4936 41.9093" stroke="#0A2854" stroke-width="2" stroke-linecap="round" stroke-linejoin="round"/>
</svg>
