<svg width="66" height="37" viewBox="0 0 66 37" fill="none" xmlns="http://www.w3.org/2000/svg">
<path d="M53.9263 30.031C50.3241 32.6537 40.6072 36.9496 30.557 33.1512C17.9944 28.4031 14.6173 26.6395 10.6999 27.3178M53.9263 30.031C55.5473 31.885 59.3026 35.6744 61.3558 36C61.0406 35.593 60.5994 34.6163 61.3558 33.9651C62.1123 33.314 62.0312 32.3372 61.8961 31.9302M53.9263 30.031C50.3787 30.6127 44.6929 30.0902 40.0128 29.41M53.9263 30.031C54.7605 30.5336 55.8763 30.9177 57.0332 31.2051M10.6999 27.3178C6.78252 27.9961 2.45989 29.624 1.64939 31.3876M10.6999 27.3178C9.79936 27.9509 7.83617 29.5155 7.18777 30.7093C6.37728 32.2016 0.838897 33.1512 1.64939 31.3876M1.64939 31.3876C1.37531 30.5275 1.65906 28.6673 4.14279 26.7752M61.8961 31.9302C62.3915 31.7494 63.4901 31.2519 63.9224 30.7093C64.3546 30.1667 64.1025 27.8605 63.9224 26.7752C64.5528 25.7804 65.5704 23.0581 64.5978 20.1279C63.3821 16.4651 63.6522 8.5969 55.6824 4.66279C50.1353 1.92462 40.5051 1.52077 34.7446 1.70027M61.8961 31.9302C60.8178 31.8747 58.8737 31.6623 57.0332 31.2051M32.4482 1.81395C30.0617 2.22093 24.8566 3.19767 23.1275 3.84884C20.9662 4.66279 15.5629 6.42636 14.3471 6.42636C13.1314 6.42636 1.91956 11.3101 1.10906 19.0426C0.460669 25.2287 2.86138 26.7752 4.14279 26.7752M32.4482 1.81395C27.5402 3.17054 17.2665 7.20997 14.3471 13.0736C12.1858 17.4147 11.5104 21.2673 12.1858 24.2308M32.4482 1.81395C32.7022 1.79589 32.9729 1.77889 33.2587 1.76328M4.14279 26.7752C4.92345 26.1805 5.92145 25.5826 7.18777 25.0116C8.4122 24.4595 10.1514 24.2305 12.1858 24.2308M12.1858 24.2308C18.9496 24.232 28.9773 26.7692 34.2043 28.4031C35.6458 28.7016 37.7072 29.0749 40.0128 29.41M33.2587 1.76328C35.465 2.91066 38.5496 5.6124 40.0128 13.8876C42.5794 28.4031 40.0578 27.1299 40.0128 29.41M33.2587 1.76328C33.7171 1.73825 34.2144 1.71679 34.7446 1.70027M34.7446 1.70027C43.615 2.5069 61.3558 7.10465 61.3558 19.0426C61.3558 27.3178 59.1945 31.6364 57.0332 31.2051M36.0954 1L30.9623 1.40698" stroke="#0A2854" stroke-width="2" stroke-linecap="round" stroke-linejoin="round"/>
</svg>
