<svg width="77" height="41" viewBox="0 0 77 41" fill="none" xmlns="http://www.w3.org/2000/svg">
<path d="M70.894 34.1648C70.128 34.291 69.9366 34.8482 69.9366 35.1111C69.777 36.5304 69.426 39.4953 69.2983 40C69.2983 40 65.8398 37.4735 62.2775 35.736M70.894 34.1648C71.9577 33.6391 74.2448 32.0515 74.883 29.9067C75.5213 27.7619 75.8936 24.8075 76 23.5984C75.9398 22.8548 75.6617 21.5997 75.0154 20.4442M70.894 34.1648C70.4322 33.4346 69.391 32.2625 67.7027 30.953M31.9602 19.8134C37.1727 20.7071 49.6081 23.1568 57.6501 25.8063C59.71 26.4849 61.5137 27.2539 63.0753 28.0508M31.9602 19.8134L32.9176 19.0249L31.9602 8.61616L25.099 5.3043L25.4896 2.93869C24.0426 1.33688 20.7721 1.14474 20.4716 1.16993M31.9602 19.8134C29.8327 20.6545 24.4926 22.2737 20.1525 22.0213C15.8123 21.769 12.9189 20.8648 12.0147 20.4442M12.0147 20.4442C11.5892 20.6545 10.7063 21.4851 10.5786 23.1253M12.0147 20.4442L11.3764 19.8134V10.3509L15.3656 6.40826L14.7273 4.35806C15.1528 3.35144 16.8974 1.30454 20.4716 1.16993M10.5786 23.1253C9.83396 21.4956 8.05747 17.1639 6.90861 12.8743C5.75975 8.58462 8.55744 5.19916 10.0999 4.04264C13.0234 2.36071 16.6765 1.50308 20.4716 1.16993M10.5786 23.1253C10.53 23.7498 10.5107 24.4703 10.5084 25.1755M10.5786 28.0142C12.7061 27.5937 18.4611 27.0049 24.4607 28.0142C28.9215 28.7647 42.7146 31.5377 51.2675 33.1053M10.5786 28.0142C10.3259 28.3472 7.5587 30.6208 4.8343 32.8238M10.5786 28.0142C10.5457 27.4283 10.5046 26.3222 10.5084 25.1755M57.6501 34.1648C57.0118 35.5842 53.1823 38.4229 48.8741 39.3692C44.5658 40.3154 29.5668 40 21.9077 37.7921C14.2486 35.5842 5.63211 36.5304 3.23864 36.6881C1.32387 36.8143 0.951554 36.215 1.00474 35.8996C2.03615 35.0769 3.42953 33.9598 4.8343 32.8238M57.6501 34.1648C56.5451 34.0435 54.2181 33.6461 51.2675 33.1053M57.6501 34.1648C59.001 34.3132 60.6501 34.9423 62.2775 35.736M4.8343 32.8238C8.02559 32.4297 16.0357 31.9884 22.5459 33.3763C30.6837 35.1111 42.4915 36.7771 51.2675 33.1053M63.0753 28.0508L62.6764 31.8934M63.0753 28.0508C64.9637 29.0144 66.498 30.0187 67.7027 30.953M62.2775 35.736L62.6764 31.8934M62.6764 31.8934C55.5758 29.9169 38.9811 25.8063 29.4072 25.1755C17.4399 24.3869 14.1081 23.5984 10.5084 25.1755M67.7027 30.953C68.5537 30.9197 70.5748 30.1275 71.8514 27.2257C73.1279 24.3239 74.4926 21.4956 75.0154 20.4442M75.0154 20.4442C74.5193 19.5575 73.8064 18.7294 72.8087 18.2363C70.511 17.1008 64.8305 13.5577 62.2775 11.928L39.7789 2.93869C35.613 1.83149 27.7791 0.528454 20.4716 1.16993M21.429 11.928C21.352 11.928 20.7675 11.928 20.1525 11.928M20.1525 11.928C19.7483 11.928 19.3308 11.928 19.0355 11.928H20.1525ZM20.1525 11.928V16.1861M20.1525 11.928C20.4716 11.7703 20.9503 11.6126 20.9503 10.9818C20.9503 10.4771 20.4184 10.3509 20.1525 10.3509C19.8865 10.3509 19.3547 10.4771 19.3547 10.9818C19.3547 11.6126 19.8334 11.7703 20.1525 11.928ZM20.1525 16.1861C20.4716 16.1861 21.9077 16.0284 21.9077 13.9782L21.429 14.2936M20.1525 16.1861C19.9929 16.1861 18.2377 16.0284 18.3973 13.9782L19.0355 14.4513" stroke="#0A2854" stroke-width="2" stroke-linecap="round" stroke-linejoin="round"/>
</svg>
