<svg width="73" height="46" viewBox="0 0 73 46" fill="none" xmlns="http://www.w3.org/2000/svg">
<path d="M67.9203 24.038C68.7111 23.5342 70.3789 22.0228 70.724 20.0076C71.1554 17.4887 71.8743 14.8977 71.8743 14.4659C71.8743 14.2905 72.0757 13.2965 71.9686 12.0908M67.9203 24.038C67.9203 27.4207 66.9857 33.6822 65.8355 34.6898C64.9153 35.4958 55.4832 35.0256 50.8822 34.6898M67.9203 24.038C66.6835 23.8722 65.3347 23.6962 63.8944 23.5135M8.61029 20.0076C7.46004 19.6622 6.54943 16.1692 6.2379 14.4659C5.74531 12.4757 5.49553 8.63657 7.17247 5.59681M8.61029 20.0076C17.5134 18.3099 46.9992 21.3705 63.8944 23.5135M8.61029 20.0076L8 31.5M50.8822 34.6898C48.5337 36.2971 42.8016 40.1452 38.6607 42.6786C34.5198 45.212 23.4678 45.1736 18.4594 44.8377C13.0196 44.094 1.98195 42.4339 1.34931 41.7429C0.716673 41.052 1.08571 39.9677 1.34931 39.5118L8.03516 31.523C18.4833 32.5786 41.6801 34.6898 50.8822 34.6898ZM7.17247 5.59681C7.77978 4.49597 8.63977 3.49996 9.83245 2.73457C14.3184 -0.144275 33.6044 1.19919 42.6866 2.23077C49.3724 3.50226 63.7794 6.30434 67.9203 7.34072C70.9948 8.11021 71.8119 10.327 71.9686 12.0908M7.17247 5.59681C12.085 4.41575 24.6132 2.76226 35.4256 5.59681C44.3625 7.93969 58.2472 10.1742 67.1295 11.4342M71.9686 12.0908C70.6372 11.9202 68.9935 11.6987 67.1295 11.4342M67.1295 11.4342C67.0576 14.2062 66.3099 20.5029 63.8944 23.5135" stroke="#0A2854" stroke-width="2" stroke-linecap="round" stroke-linejoin="round"/>
</svg>
