<svg width="72" height="58" viewBox="0 0 72 58" fill="none" xmlns="http://www.w3.org/2000/svg">
<path d="M8.54276 42.6343C10.2308 42.0108 11.1515 39.9846 16.9829 40.2963M8.54276 42.6343C7.92888 41.5433 8.74733 39.9327 9.31001 39.2053C9.71923 38.6858 10.4763 37.1479 13.2999 30.7887C16.1235 24.4295 22.5586 19.2549 25.4231 17.6962C27.3608 16.5372 30.6688 15.1831 34.784 14.4962M8.54276 42.6343L4.16371 47.9336M16.9829 40.2963C21.648 40.5457 37.6485 44.8683 45.0657 46.9984L49.9763 48.2939M16.9829 40.2963C16.1236 39.4235 16.6249 37.9584 16.9829 37.335C17.2898 36.3478 18.8551 32.4409 22.6608 24.7101C27.418 15.0466 34.1701 14.6047 34.784 14.4962M56.8819 50.1157L67.7774 53.7006C68.3912 53.9603 69.5882 54.0434 69.4654 52.2978C69.4654 51.9861 71 49.804 71 45.5957C71 42.229 70.6931 38.9975 70.5396 37.8025C70.5396 33.854 67.4091 24.3048 54.887 17.6962C54.6311 17.5612 54.3753 17.4305 54.1196 17.3041M56.8819 50.1157C53.915 51.5704 47.9199 54.511 47.6744 54.6357C47.3675 54.7916 41.9965 57.753 31.5613 56.8178C23.2133 56.0697 15.3972 53.2849 12.5326 51.9861C11.7425 51.6596 10.7204 51.314 9.61534 51.0509M56.8819 50.1157L49.9763 48.2939M1.63712 53.0771C2.72464 50.2236 6.49938 50.309 9.61534 51.0509M1.63712 53.0771C2.50567 53.8564 5.31727 54.5422 9.61534 51.0509M1.63712 53.0771C0.654992 52.6344 1.02329 51.7496 1.33021 51.3626L4.16371 47.9336M34.784 14.4962C35.8577 14.317 36.9864 14.1832 38.16 14.1102M49.209 15.3652C51.4597 16.1942 55.5928 20.0965 54.1196 29.0742C52.6464 38.0519 51.7666 44.7644 51.5108 46.9984C51.4085 47.5382 50.9584 48.553 49.9763 48.2939M49.209 15.3652C45.3117 14.1947 41.5485 13.8993 38.16 14.1102M49.209 15.3652C50.8285 15.8516 52.4711 16.4891 54.1196 17.3041M4.16371 47.9336C5.41877 46.7906 9.09517 44.8475 13.7603 46.2191C18.4254 47.5907 23.4793 48.8688 25.4231 49.3364C30.5895 50.6352 42.2727 52.1731 47.6744 47.9336M38.16 14.1102C37.4951 13.5391 36.472 11.5864 37.6997 8.34448C39.2342 4.29205 40.7688 0.707203 48.2882 1.01893C54.3038 1.26831 56.7284 5.59091 57.1888 7.72103C57.3422 10.1093 56.9432 15.3695 54.1196 17.3041" stroke="#0A2854" stroke-width="2" stroke-linecap="round" stroke-linejoin="round"/>
</svg>
