<svg width="72" height="38" viewBox="0 0 72 38" fill="none" xmlns="http://www.w3.org/2000/svg">
<path d="M48.6286 1.22515C66.7663 3.28608 71.1427 18.4539 70.9965 26.6376C70.8743 26.8776 70.6499 27.6594 70.5796 29.0501M48.6286 1.22515C30.9389 -0.784875 18.9021 11.1796 15.4421 16.5875C13.5416 19.1239 9.30193 24.3117 7.54758 24.7712M48.6286 1.22515C56.8155 7.68595 50.9677 18.8847 45.997 24.7712C41.0264 30.6577 28.8921 31.9498 22.1671 29.0501C16.7871 26.7303 10.1791 25.2309 7.54758 24.7712M7.54758 24.7712C5.35465 25.3455 2.86932 26.2069 3.4541 28.7912M3.4541 28.7912C4.18504 28.5041 5.64703 26.0633 15.7345 29.6526C25.822 33.242 40.5878 35.5392 50.9677 31.0884M3.4541 28.7912C3.06693 28.9433 2.43067 29.7962 2.13831 30.2269M50.9677 31.0884C55.3536 30.9927 64.9732 31.031 68.365 31.9498C69.0959 32.0934 70.5579 31.8924 70.5579 29.9398C70.5579 29.6194 70.5658 29.323 70.5796 29.0501M50.9677 31.0884C56.8155 27.4129 66.4789 28.1981 70.5796 29.0501M50.9677 31.0884C36.7867 40.1335 28.3074 37.1185 18.5123 33.0984C16.5473 32.292 14.6823 31.6733 12.9568 31.2035M2.13831 30.2269C3.74485 30.0118 7.80105 29.7997 12.9568 31.2035M2.13831 30.2269C1.20628 32.6677 5.00377 36.3494 12.9568 31.2035" stroke="#0A2854" stroke-width="2" stroke-linecap="round" stroke-linejoin="round"/>
</svg>
