<svg width="75" height="39" viewBox="0 0 75 39" fill="none" xmlns="http://www.w3.org/2000/svg">
<path d="M6.44483 23.885C6.44483 23.784 6.62867 22.6423 7.36399 18.8837C8.09932 15.1251 13.1853 11.7605 15.6364 10.5481L34.1728 2.36401C35.215 2.02118 36.0909 1.96606 37.0834 1.95703M6.44483 23.885C7.7271 23.4257 9.98949 22.9494 12.8789 22.8717M6.44483 23.885C2.278 25.2187 1.13415 27.674 1.08308 28.7349M57.1517 33.8878C57.9177 33.8878 58.5304 32.9784 61.5943 34.7971M57.1517 33.8878C52.5696 33.8878 47.1885 32.8183 41.3728 31.04M57.1517 33.8878C55.4666 34.494 49.1968 38.9174 38.9217 37.8282C34.6323 37.3736 24.6748 30.5535 18.8535 27.8255M61.5943 34.7971C64.0454 36.2521 69.5603 36.7168 72.0114 36.7674C72.1646 35.3023 72.5936 32.0691 73.0838 30.8566C73.6966 29.3411 75.0753 17.6712 72.471 13.2761C69.8667 8.88094 64.505 4.78891 54.3942 2.66712C50.0936 1.7646 46.3683 1.35281 42.5984 1.45467M61.5943 34.7971C61.9081 34.9697 66.3433 36.0096 66.8029 29.7958C67.2624 23.5819 68.0284 12.2152 58.0709 7.82004C50.1048 4.30393 44.692 2.04077 42.5984 1.45467M42.5984 1.45467C41.8529 1.47481 41.6792 1.90934 39.6877 1.90934M39.6877 1.90934C40.6579 3.62646 42.5984 8.39596 42.5984 14.337C42.5984 20.278 41.7813 27.9477 41.3728 31.04M39.6877 1.90934C38.6676 1.97012 37.8415 1.95013 37.0834 1.95703M41.3728 31.04C36.689 29.6077 31.7234 27.7157 26.6663 25.5522C21.5237 23.3521 16.6634 22.7699 12.8789 22.8717M36.6239 1.45467C36.7464 1.45467 40.4537 1.15156 42.292 1M12.8789 22.8717C12.6747 22.6538 12.3887 21.8845 12.8789 20.5508C13.4917 18.8837 17.0152 12.3667 22.9897 9.33561C27.7693 6.91071 34.377 3.40618 37.0834 1.95703M1.08308 28.7349C2.9214 23.885 11.2449 25.0975 15.1768 26.3099C15.7959 26.7999 17.9507 27.1879 18.8535 27.8255M1.08308 28.7349C0.623501 30.503 1.84904 33.5544 10.4279 31.6144C11.7555 31.4124 14.7172 30.6142 15.9428 29.038C15.9939 28.611 17.7505 27.6162 18.8535 27.8255" stroke="#0A2854" stroke-width="2" stroke-linecap="round" stroke-linejoin="round"/>
</svg>
