<svg width="68" height="39" viewBox="0 0 68 39" fill="none" xmlns="http://www.w3.org/2000/svg">
<path d="M54.645 30.8842C51.0257 33.4731 43.2727 39.5614 30.2157 37.6267C16.8757 35.6501 14.225 32.2613 9.15592 32.0894C8.53722 32.0684 7.92524 32.0523 7.33074 32.0477M1.01278 33.7573C0.73741 32.9083 4.97567 28.5772 7.47115 26.7095M1.01278 33.7573C1.6942 32.3006 4.2828 32.0239 7.33074 32.0477M1.01278 33.7573C1.0596 34.5983 2.38872 35.4338 7.33074 32.0477M33.1711 2.36189C30.7734 2.76361 25.7754 3.95592 24.0381 4.59868C21.8666 5.40213 15.8252 7.90422 14.3507 8.74446C11.6831 10.2646 3.58992 14.4104 2.838 21.4582C2.33672 26.1567 6.18368 26.7095 7.47115 26.7095M33.1711 2.36189C28.24 3.70097 19.7306 8.50896 16.0354 13.8576C13.6487 17.3124 12.4085 22.1259 13.0871 25.0512M33.1711 2.36189C33.4264 2.34406 33.6983 2.32728 33.9855 2.31187M7.47115 26.7095C8.31353 26.079 9.15592 25.7421 9.85792 25.6039C10.5599 25.4658 11.043 25.0508 13.0871 25.0512M13.0871 25.0512C19.8829 25.0524 29.7375 25.9259 34.9892 27.5386C37.6568 28.3579 40.6755 28.037 42.9919 28.3678M33.9855 2.31187C36.2022 3.44444 40.9843 9.48986 42.1495 14.4104C44.5363 24.4894 43.0371 26.1171 42.9919 28.3678M33.9855 2.31187C34.446 2.28716 34.9457 2.26598 35.4784 2.24967C37.4965 2.18789 40.1522 2.4118 42.9919 2.84425M42.9919 28.3678L47.2038 28.6055M36.3932 1.42025C36.3932 1.42025 35.3003 0.943003 33.7256 1.00567C32.1509 1.06834 31.3388 1.69664 31.3388 1.69664M47.2038 28.6055C51.3222 29.816 60.0643 32.4859 62.0861 33.4809C62.5541 32.3173 63.49 29.8969 63.49 29.5244M47.2038 28.6055L63.49 29.5244M63.49 29.5244H63.9112M63.9112 29.5244L65.0344 29.6115C65.6678 28.6295 67 22.157 67 19.1089C67 15.7923 65.8798 10.8313 57.8723 6.94795C54.2423 5.18755 48.2963 3.65206 42.9919 2.84425M63.9112 29.5244C64.6366 24.5579 64.8575 15.4728 57.0317 9.43542C51.837 5.42783 43.5067 2.92845 42.9919 2.84425" stroke="#0A2854" stroke-width="2" stroke-linecap="round" stroke-linejoin="round"/>
</svg>
