<svg width="81" height="57" viewBox="0 0 81 57" fill="none" xmlns="http://www.w3.org/2000/svg">
<path d="M11.5242 32.7519C9.47963 33.3583 7.62807 30.936 8.36129 26.8624C9.96738 17.9391 25.1031 12.2505 34.3691 10.3076C36.0032 9.96498 39.1838 9.67943 42.1402 9.59949M11.5242 32.7519L3.84232 37.917M11.5242 32.7519C11.9417 32.5858 12.672 32.4581 13.7201 32.4616M53.3766 44.1861C58.6542 45.2195 63.1087 44.6672 66.6398 44.4298C67.0047 44.3134 67.4062 44.1799 67.8301 44.025M53.3766 44.1861C53.0405 44.1203 52.6752 44.2169 52.2978 44.2102M53.3766 44.1861C54.8576 35.564 55.2215 16.574 44.829 9.5902M46.1729 9.58803C53.4203 10.7388 57.7788 11.8077 59.8282 13.286C62.4202 15.1556 63.1845 16.2653 68.0978 18.3236C75.0521 21.2369 76.3245 27.7218 76.0965 30.5677C75.7463 32.7734 75.7127 32.985 75.0973 36.8605C74.435 41.0318 70.6398 42.9984 67.8301 44.025M46.1729 9.58803C47.7265 9.50215 47.7293 8.63798 46.4099 8.09593C45.2444 7.61714 44.1163 7.73175 43.2321 8.18994C42.7418 8.44399 41.9863 9.15826 42.1402 9.59949M46.1729 9.58803C45.4926 9.47999 45.8412 9.61532 44.829 9.5902M46.1729 9.58803C68.0365 13.3789 70.1359 34.1914 67.8301 44.025M52.2978 44.2102L46.9095 47.6819C43.4645 49.3518 34.6272 51.5844 26.8387 47.1553C19.0502 42.7261 13.8604 40.0398 12.2391 39.2503M52.2978 44.2102C48.9888 44.1515 44.3322 42.9705 38.8357 40.9884C36.7164 40.2241 34.4722 39.3408 32.1323 38.3567M12.2391 39.2503C8.76403 40.8268 2.01059 43.0799 2.79714 39.4803C2.95779 38.7451 3.3291 38.2412 3.84232 37.917M12.2391 39.2503C9.99539 38.1178 5.8418 36.654 3.84232 37.917M42.1402 9.59949C43.0778 9.57414 43.9929 9.56946 44.829 9.5902M42.1402 9.59949C31.7961 11.7034 11.6303 19.2212 13.7201 32.4616M44.829 9.5902C37.9412 14.043 33.4946 30.6232 32.1323 38.3567M32.1323 38.3567C30.5005 37.6705 28.8221 36.9353 27.107 36.1573C20.7099 33.2556 16.2724 32.4699 13.7201 32.4616" stroke="#0A2854" stroke-width="2" stroke-linecap="round" stroke-linejoin="round"/>
</svg>
