<svg width="74" height="49" viewBox="0 0 74 49" fill="none" xmlns="http://www.w3.org/2000/svg">
<path d="M65.4942 27.8788C66.5132 28.0855 68.8569 28.3748 70.0797 27.8788C71.6081 27.2589 73.5952 28.8088 72.8309 31.2885C72.0667 33.7683 70.6911 38.8827 61.3673 41.3625C53.9083 43.3463 44.5031 45.7021 40.7328 46.632C32.6828 47.9235 14.5652 49.4527 6.49484 45.2371C-1.57554 41.0215 0.992306 37.1779 3.28503 35.783L9.8575 32.2184M65.4942 27.8788L62.743 11.4505C62.4882 9.48737 60.5114 5.09614 54.642 3.23633M65.4942 27.8788C65.578 28.3458 65.6961 28.8709 65.8172 29.4287M9.8575 32.2184C10.0474 30.6776 10.2922 28.7271 10.5602 26.639M9.8575 32.2184C8.757 34.6982 12.5578 36.248 14.5958 36.713C15.0034 36.713 17.6528 37.7978 24.3781 38.1078C31.3064 38.4271 45.573 39.296 51.8907 39.1927M37.6759 1.68648C29.4221 -0.173328 23.6138 2.15144 18.417 3.85627C15.9567 4.66338 14.6954 5.92207 13.9844 7.2541M37.6759 1.68648C30.9505 2.15144 28.8107 3.5463 24.3781 5.09614C20.832 6.33602 18.417 5.92272 17.6528 5.56109M37.6759 1.68648C40.8857 1.42818 48.7726 1.37652 54.642 3.23633M54.642 3.23633C50.3113 2.71971 38.9904 2.80001 28.3521 7.2541C17.7139 11.7082 14.341 9.10997 13.9844 7.2541M10.5602 26.639C11.3705 20.3256 12.3941 12.7549 12.7616 11.4505C13.0836 10.308 13.1936 8.73566 13.9844 7.2541M10.5602 26.639C10.9373 27.8272 13.4496 29.6411 24.3781 30.9785C33.2433 32.0634 41.8028 32.6834 50.8208 32.6834M50.8208 32.6834L51.8907 39.1927M50.8208 32.6834L56.7819 32.2184M51.8907 39.1927C53.8778 39.1689 57.0876 38.7587 58.0047 38.5728M56.7819 32.2184C57.1895 33.6649 58.0047 36.9609 58.0047 38.5728M56.7819 32.2184C57.3933 32.2184 64.6117 31.2885 65.8172 29.4287M58.0047 38.5728C61.0616 37.9528 65.0662 37.3949 66.4113 35.783C66.5642 35.4731 67.1756 35.0081 66.2585 34.0782C66.1056 32.0634 66.1383 30.9072 65.8172 29.4287M26.6708 13.4653C29.9316 18.2698 40.0909 26.081 54.642 18.8898" stroke="#0A2854" stroke-width="2" stroke-linecap="round" stroke-linejoin="round"/>
</svg>
