<svg width="45" height="55" viewBox="0 0 45 55" fill="none" xmlns="http://www.w3.org/2000/svg">
<path d="M38.4075 51.6024C31.3486 48.7252 24.8613 52.002 22.3757 54C19.8902 52.002 13.6514 48.7252 6.59247 51.6024C6.24035 51.6655 5.39941 51.5771 4.85259 50.719C4.30577 49.8609 2.67773 46.744 1.93206 45.2929C1.76636 44.9353 1.60894 43.9931 2.3049 43.0845C3.17484 41.9488 8.58093 36.3964 7.15174 27.8155C6.00838 20.9507 2.57418 16.7948 1 15.575C2.05636 12.904 4.46735 7.34737 5.66041 6.48928C7.44172 7.03611 11.8619 7.80166 15.2919 6.48928C19.5795 4.84881 19.0202 1.06309 22.1272 0.999994L22.8728 0.999994C25.9798 1.06309 25.4205 4.84881 29.7081 6.48928C33.1382 7.80166 37.5583 7.03611 39.3396 6.48928C40.5327 7.34738 42.9436 12.904 44 15.575C42.4258 16.7948 38.9916 20.9507 37.8483 27.8155C36.4191 36.3964 41.8252 41.9488 42.6951 43.0845C43.3911 43.9931 43.2336 44.9353 43.0679 45.2929C42.3223 46.744 40.6942 49.861 40.1474 50.719C39.6006 51.5771 38.7596 51.6655 38.4075 51.6024Z" stroke="#0A2854" stroke-width="2" stroke-linecap="round" stroke-linejoin="round"/>
</svg>
