<svg width="42" height="67" viewBox="0 0 42 67" fill="none" xmlns="http://www.w3.org/2000/svg">
<path d="M21.1675 16.6608L13.7104 9.79936C13.502 9.60081 13.2455 9.29407 12.9821 8.90894M21.1675 16.6608L27.7902 9.79936C28.1274 9.4963 28.4097 9.19881 28.6475 8.90894M21.1675 16.6608L11.9374 26.4029M11.0509 1C11.0509 2.1523 11.3116 3.61886 11.5724 5.45205C11.7605 6.77496 12.3885 8.04101 12.9821 8.90894M11.0509 1H30.919M11.0509 1C8.89547 3.06017 4.27955 8.07401 1.97726 10.7945C0.204256 12.8896 0.986466 16.3989 3.17665 18.4416L11.9374 26.4029M30.919 1L30.1368 5.45205C29.906 6.26338 29.8069 7.49549 28.6475 8.90894M30.919 1L39.6276 10.3755C41.8386 13.0991 41.0877 16.6608 39.419 18.1273L35.3515 22.1637M12.9821 8.90894H28.6475M11.9374 26.4029C10.7206 27.3457 8.65212 29.9017 10.1122 32.5834C11.5724 35.2651 13.1194 37.8909 13.7104 38.8687C14.2145 39.6194 15.7129 40.838 17.6736 39.7067M17.6736 39.7067L30.4992 26.979M17.6736 39.7067V61.2337M17.6736 66V61.2337M35.3515 22.1637L30.4992 26.979M35.3515 22.1637V51.4915M35.3515 56.0483V51.4915M30.4992 26.979L30.7366 52.7486M30.8147 61.2337L30.7737 56.7816M17.6736 61.2337L22.0018 59.7627M30.7737 56.7816L30.7366 52.7486M30.7737 56.7816L26.3878 58.2722M30.7366 52.7486L35.3515 51.4915M22.0018 59.7627V64.743M22.0018 59.7627L26.3878 58.2722M26.3878 58.2722V63.643" stroke="#0A2854" stroke-width="2" stroke-linecap="round" stroke-linejoin="round"/>
</svg>
